# xmcd
#
# Track frame offsets:
#	150
#	19568
#	39169
#	56992
#	72247
#	99192
#	119005
#	140891
#	158057
#	172379
#	191424
#	212665
#	234604
#
# Disc length: 3548 seconds
#
# Revision: 1
# Processed by: cddbd v1.5.1PL0 Copyright (c) Steve Scherf et al.
# Submitted via: EasyCDDAExtractor 8.0.2.1
#
DISCID=bb0dda0d
DTITLE=Judas Priest - SECC Glasgow 25-03-05 Disc 1
DYEAR=2005
DGENRE=Metal
TTITLE0=The Hellion - Electric Eye
TTITLE1=Metal Gods
TTITLE2=Riding On The Wind
TTITLE3=The Ripper
TTITLE4=A Touch Of Evil
TTITLE5=Judas is Rising
TTITLE6=Revolution
TTITLE7=Hot Rockin'
TTITLE8=Breakin' The Law
TTITLE9=I'm A Rocker
TTITLE10=Diamonds And Rust
TTITLE11=Deal With The Devil
TTITLE12=Beyond The Realms Of Death
EXTD=
EXTT0=
EXTT1=
EXTT2=
EXTT3=
EXTT4=
EXTT5=
EXTT6=
EXTT7=
EXTT8=
EXTT9=
EXTT10=
EXTT11=
EXTT12=
PLAYORDER=
